<svg width="24" height="24" viewBox="0 0 24 24" fill="none" xmlns="http://www.w3.org/2000/svg">
<path d="M12 8.75C10.2051 8.75 8.75 10.2051 8.75 12C8.75 13.7949 10.2051 15.25 12 15.25C13.7949 15.25 15.25 13.7949 15.25 12C15.25 10.2051 13.7949 8.75 12 8.75Z" fill="#005680"/>
<path fill-rule="evenodd" clip-rule="evenodd" d="M6.76973 3.08152C10.2179 2.69614 13.7826 2.69614 17.2307 3.08152C19.1291 3.29369 20.6603 4.78947 20.8831 6.69452C21.2954 10.2195 21.2954 13.7805 20.8831 17.3055C20.6603 19.2106 19.1291 20.7064 17.2307 20.9185C13.7826 21.3039 10.2179 21.3039 6.76973 20.9185C4.87133 20.7064 3.34014 19.2106 3.11732 17.3055C2.70504 13.7805 2.70504 10.2195 3.11732 6.69452C3.34014 4.78947 4.87133 3.29369 6.76973 3.08152ZM17.0002 6.00005C16.4479 6.00005 16.0002 6.44777 16.0002 7.00005C16.0002 7.55233 16.4479 8.00005 17.0002 8.00005C17.5525 8.00005 18.0002 7.55233 18.0002 7.00005C18.0002 6.44777 17.5525 6.00005 17.0002 6.00005ZM7.25019 12C7.25019 9.3767 9.37683 7.25005 12.0002 7.25005C14.6236 7.25005 16.7502 9.3767 16.7502 12C16.7502 14.6234 14.6236 16.75 12.0002 16.75C9.37683 16.75 7.25019 14.6234 7.25019 12Z" fill="#005680"/>
</svg>
