<svg width="196" height="95" viewBox="0 0 196 95" fill="none" xmlns="http://www.w3.org/2000/svg">
<path d="M39.1403 41.016V34.104H45.9883V24.952H39.1403V18.104H29.9883V24.952H23.0763V34.104H29.9883V41.016H39.1403ZM68.8983 51.64C79.3303 51.64 86.4343 45.944 86.4343 36.536C86.4343 28.856 82.4023 23.608 74.0183 23.608C68.5783 23.608 64.9943 26.232 63.6503 30.328V27.64C63.6503 21.432 66.0183 19.128 70.7543 19.128C74.3383 19.128 77.2183 20.216 80.2903 22.968L85.0263 11.384C81.8263 9.208 76.6423 7.48 70.8823 7.48C57.1223 7.48 50.6583 15.8 50.6583 29.176V30.328C50.6583 42.936 55.8423 51.64 68.8983 51.64ZM68.4503 40.696C64.8663 40.696 63.4583 38.456 63.4583 35.384C63.4583 32.568 64.8663 30.136 68.4503 30.136C72.1623 30.136 73.8263 32.568 73.8263 35.384C73.8263 38.456 72.1623 40.696 68.4503 40.696ZM106.676 51C106.676 33.912 114.292 24.888 120.18 18.04V8.12H87.7963V18.36H108.98C102.9 24.888 93.8763 34.808 93.8763 51H106.676Z" fill="#005680"/>
<rect opacity="0.2" width="1" height="95" transform="matrix(-1 0 0 1 196 0)" fill="#595959"/>
<path d="M9.02875 79V77.768H3.41275L2.32475 77.848L3.44475 76.424L8.70875 69.384V68.28H1.18875V69.512H5.79675L7.28475 69.432L5.73275 71.384L0.86875 77.896V79H9.02875ZM12.8475 79.16C14.9915 79.16 16.5115 77.576 16.5115 75.128C16.5115 72.68 14.9915 71.096 12.8475 71.096C10.7035 71.096 9.1995 72.68 9.1995 75.128C9.1995 77.576 10.7035 79.16 12.8475 79.16ZM12.8475 77.992C11.5355 77.992 10.6235 77.08 10.6235 75.128C10.6235 73.16 11.5355 72.264 12.8475 72.264C14.1755 72.264 15.1035 73.16 15.1035 75.128C15.1035 77.08 14.1755 77.992 12.8475 77.992ZM19.6511 79V74.616C19.6511 73.32 20.1951 72.28 21.6831 72.28C22.9951 72.28 23.3951 72.984 23.3951 73.992V79H24.7711V73.656C24.7711 72.008 23.8271 71.096 22.3071 71.096C20.7871 71.096 19.9551 72.12 19.6511 73.32V71.256H18.2591V79H19.6511ZM30.102 79.16C31.782 79.16 32.854 78.376 33.43 77.448L32.582 76.488C32.278 77.16 31.654 78.008 30.102 78.008C28.726 78.008 27.814 77.08 27.734 75.448H33.478C33.51 75.304 33.542 75.064 33.542 74.824C33.542 72.552 32.214 71.096 30.022 71.096C27.894 71.096 26.39 72.68 26.39 75.128C26.39 77.592 27.91 79.16 30.102 79.16ZM30.022 72.264C31.318 72.264 32.15 73.016 32.294 74.44H27.766C27.942 73 28.774 72.264 30.022 72.264ZM38.189 79.16C39.693 79.16 41.005 78.472 41.005 76.936C41.005 75.864 40.429 75.144 38.685 74.728L37.693 74.472C36.637 74.216 36.125 73.976 36.125 73.288C36.125 72.632 36.701 72.28 37.501 72.28C38.605 72.28 39.341 72.856 39.725 73.768L40.781 72.984C40.349 71.96 39.213 71.096 37.581 71.096C35.901 71.096 34.813 71.96 34.813 73.368C34.813 74.792 36.013 75.32 37.117 75.576L38.141 75.816C39.053 76.024 39.757 76.248 39.757 76.952C39.757 77.64 39.149 77.992 38.237 77.992C36.701 77.992 35.853 77.112 35.581 76.232L34.573 77.016C35.101 78.456 36.573 79.16 38.189 79.16ZM48.8701 79.192C50.3581 79.192 51.0941 78.2 51.3661 77.016V79H52.7581V68.28H51.3661V73.272C51.0941 72.088 50.3581 71.096 48.8701 71.096C46.9181 71.096 45.7021 72.696 45.7021 75.144C45.7021 77.592 46.9181 79.192 48.8701 79.192ZM47.1101 75.144C47.1101 73.176 48.1181 72.28 49.3341 72.28C50.8221 72.28 51.3661 73.32 51.3661 74.6V75.704C51.3661 76.984 50.8221 78.024 49.3341 78.024C48.1181 78.024 47.1101 77.128 47.1101 75.144ZM54.9805 72.024C56.0685 71.896 56.3725 71.336 56.3725 70.392V68.312H54.6925V70.392H55.4765V70.616C55.4765 71.064 55.2205 71.176 54.6765 71.256L54.9805 72.024ZM59.698 70.008V68.28H58.306V70.008H59.698ZM59.698 79V71.256H58.306V79H59.698ZM63.1824 79V74.616C63.1824 73.32 63.7264 72.28 65.2144 72.28C66.5264 72.28 66.9264 72.984 66.9264 73.992V79H68.3024V73.656C68.3024 72.008 67.3584 71.096 65.8384 71.096C64.3184 71.096 63.4864 72.12 63.1824 73.32V71.256H61.7904V79H63.1824ZM72.7418 79.176C73.8138 79.176 74.5498 78.68 74.8858 78.152L74.4218 76.776C74.2138 77.256 73.7338 77.832 73.0458 77.832C72.4378 77.832 71.9738 77.592 71.9738 76.6V72.344H74.5178V71.256H71.9738V69.24L70.5818 70.264V71.256H69.3338V72.344H70.5818V77.016C70.5818 78.344 71.4778 79.176 72.7418 79.176ZM79.0083 79.16C80.6883 79.16 81.7603 78.376 82.3363 77.448L81.4883 76.488C81.1843 77.16 80.5603 78.008 79.0083 78.008C77.6323 78.008 76.7203 77.08 76.6403 75.448H82.3843C82.4163 75.304 82.4483 75.064 82.4483 74.824C82.4483 72.552 81.1203 71.096 78.9283 71.096C76.8003 71.096 75.2963 72.68 75.2963 75.128C75.2963 77.592 76.8163 79.16 79.0083 79.16ZM78.9283 72.264C80.2243 72.264 81.0563 73.016 81.2003 74.44H76.6723C76.8483 73 77.6803 72.264 78.9283 72.264ZM85.6043 79V74.616C85.6043 73.288 86.5003 72.12 87.4923 72.12C88.0523 72.12 88.2923 72.504 88.2923 72.952C88.2923 73.384 88.0843 73.864 87.8283 74.088H89.3483C89.4763 73.896 89.6523 73.416 89.6523 72.76C89.6523 71.672 88.8523 71.08 88.0203 71.08C86.7083 71.08 85.9083 72.12 85.6043 73.32V71.256H84.2122V79H85.6043ZM94.4685 79L97.2845 71.256H95.7965L94.2765 75.848L93.6205 77.976L92.9485 75.848L91.4125 71.256H89.9085L92.7085 79H94.4685ZM101.336 79.16C103.016 79.16 104.088 78.376 104.664 77.448L103.816 76.488C103.512 77.16 102.888 78.008 101.336 78.008C99.9604 78.008 99.0484 77.08 98.9684 75.448H104.712C104.744 75.304 104.776 75.064 104.776 74.824C104.776 72.552 103.448 71.096 101.256 71.096C99.1284 71.096 97.6244 72.68 97.6244 75.128C97.6244 77.592 99.1444 79.16 101.336 79.16ZM101.256 72.264C102.552 72.264 103.384 73.016 103.528 74.44H99.0004C99.1764 73 100.008 72.264 101.256 72.264ZM107.932 79V74.616C107.932 73.32 108.476 72.28 109.964 72.28C111.276 72.28 111.676 72.984 111.676 73.992V79H113.052V73.656C113.052 72.008 112.108 71.096 110.588 71.096C109.068 71.096 108.236 72.12 107.932 73.32V71.256H106.54V79H107.932ZM117.492 79.176C118.564 79.176 119.3 78.68 119.636 78.152L119.172 76.776C118.964 77.256 118.484 77.832 117.796 77.832C117.188 77.832 116.724 77.592 116.724 76.6V72.344H119.268V71.256H116.724V69.24L115.332 70.264V71.256H114.084V72.344H115.332V77.016C115.332 78.344 116.228 79.176 117.492 79.176ZM122.401 70.008V68.28H121.009V70.008H122.401ZM122.401 79V71.256H121.009V79H122.401ZM127.598 79.16C129.742 79.16 131.262 77.576 131.262 75.128C131.262 72.68 129.742 71.096 127.598 71.096C125.454 71.096 123.95 72.68 123.95 75.128C123.95 77.576 125.454 79.16 127.598 79.16ZM127.598 77.992C126.286 77.992 125.374 77.08 125.374 75.128C125.374 73.16 126.286 72.264 127.598 72.264C128.926 72.264 129.854 73.16 129.854 75.128C129.854 77.08 128.926 77.992 127.598 77.992ZM134.401 79V74.616C134.401 73.32 134.945 72.28 136.433 72.28C137.745 72.28 138.145 72.984 138.145 73.992V79H139.521V73.656C139.521 72.008 138.577 71.096 137.057 71.096C135.537 71.096 134.705 72.12 134.401 73.32V71.256H133.009V79H134.401Z" fill="#595959"/>
</svg>
