<svg width="149" height="88" viewBox="0 0 149 88" fill="none" xmlns="http://www.w3.org/2000/svg">
<path d="M74.0385 51V40.76H61.1745L51.1905 42.296L57.2705 39.032L61.8785 36.088C68.4065 31.928 72.6305 27.64 72.6305 21.24C72.6305 12.792 66.9345 7.48 57.4625 7.48C47.7345 7.48 40.1185 12.344 38.2625 21.24L46.6465 28.536C48.4385 20.984 52.0225 18.488 56.0545 18.488C58.4865 18.488 60.2785 19.64 60.2785 21.88C60.2785 23.736 59.3825 25.016 56.9505 27.128L39.5425 42.424V51H74.0385ZM108.849 51V43.192H114.673V33.272H108.849V8.12H95.4725L75.9525 34.232V43.192H97.3285V51H108.849ZM87.8565 33.272L97.3285 20.6V33.272H87.8565Z" fill="#005680"/>
<path d="M5.03144 79C8.40744 79 10.0874 77.032 10.0874 73.64C10.0874 70.248 8.40744 68.28 5.03144 68.28H1.23944V79H5.03144ZM4.80744 69.512C7.23944 69.512 8.64744 70.584 8.64744 73.64C8.64744 76.696 7.23944 77.768 4.80744 77.768H2.63144V69.512H4.80744ZM15.1053 79.16C17.2493 79.16 18.7693 77.576 18.7693 75.128C18.7693 72.68 17.2493 71.096 15.1053 71.096C12.9613 71.096 11.4573 72.68 11.4573 75.128C11.4573 77.576 12.9613 79.16 15.1053 79.16ZM15.1053 77.992C13.7933 77.992 12.8813 77.08 12.8813 75.128C12.8813 73.16 13.7933 72.264 15.1053 72.264C16.4333 72.264 17.3613 73.16 17.3613 75.128C17.3613 77.08 16.4333 77.992 15.1053 77.992ZM21.9089 79V74.616C21.9089 73.32 22.4529 72.28 23.6209 72.28C24.7889 72.28 25.3169 72.84 25.3169 73.976V79H26.7089V74.616C26.7089 73.32 27.2529 72.28 28.4369 72.28C29.5889 72.28 30.1329 72.84 30.1329 73.976V79H31.5089V73.64C31.5089 72.008 30.7249 71.096 29.2049 71.096C27.7969 71.096 26.9969 72.136 26.6929 73.368C26.6129 71.912 25.8289 71.096 24.4049 71.096C23.0129 71.096 22.2129 72.12 21.9089 73.304V71.256H20.5169V79H21.9089ZM35.2107 79.16C36.8107 79.16 37.6427 78.008 37.8987 76.984V77.528C37.8987 78.616 38.4747 79 39.2747 79H40.1707V77.736H39.6747C39.3867 77.736 39.2427 77.624 39.2427 77.256V74.072C39.2427 72.232 38.2187 71.096 36.3147 71.096C34.5867 71.096 33.4347 72.072 32.9707 72.872L33.9147 73.848C34.3147 73 35.0507 72.36 36.1547 72.36C37.3707 72.36 37.8027 73.032 37.8507 73.944L35.0507 75.192C33.9467 75.688 33.1627 76.344 33.1627 77.384C33.1627 78.408 33.8987 79.16 35.2107 79.16ZM34.5707 77.16C34.5707 76.68 34.9067 76.36 35.6427 76.008L37.8987 74.952V76.024C37.8987 77.144 36.9707 78.008 35.6587 78.008C34.9387 78.008 34.5707 77.688 34.5707 77.16ZM43.1746 70.008V68.28H41.7826V70.008H43.1746ZM43.1746 79V71.256H41.7826V79H43.1746ZM46.6589 79V74.616C46.6589 73.32 47.2029 72.28 48.6909 72.28C50.0029 72.28 50.4029 72.984 50.4029 73.992V79H51.7789V73.656C51.7789 72.008 50.8349 71.096 49.3149 71.096C47.7949 71.096 46.9629 72.12 46.6589 73.32V71.256H45.2669V79H46.6589ZM57.1098 79.16C58.7898 79.16 59.8618 78.376 60.4378 77.448L59.5898 76.488C59.2858 77.16 58.6618 78.008 57.1098 78.008C55.7338 78.008 54.8218 77.08 54.7418 75.448H60.4858C60.5178 75.304 60.5498 75.064 60.5498 74.824C60.5498 72.552 59.2218 71.096 57.0298 71.096C54.9018 71.096 53.3978 72.68 53.3978 75.128C53.3978 77.592 54.9178 79.16 57.1098 79.16ZM57.0298 72.264C58.3258 72.264 59.1578 73.016 59.3018 74.44H54.7738C54.9498 73 55.7818 72.264 57.0298 72.264ZM65.1968 79.16C66.7008 79.16 68.0128 78.472 68.0128 76.936C68.0128 75.864 67.4368 75.144 65.6928 74.728L64.7008 74.472C63.6448 74.216 63.1328 73.976 63.1328 73.288C63.1328 72.632 63.7088 72.28 64.5088 72.28C65.6128 72.28 66.3488 72.856 66.7328 73.768L67.7888 72.984C67.3568 71.96 66.2208 71.096 64.5888 71.096C62.9088 71.096 61.8208 71.96 61.8208 73.368C61.8208 74.792 63.0208 75.32 64.1248 75.576L65.1488 75.816C66.0608 76.024 66.7648 76.248 66.7648 76.952C66.7648 77.64 66.1568 77.992 65.2448 77.992C63.7088 77.992 62.8608 77.112 62.5888 76.232L61.5808 77.016C62.1088 78.456 63.5808 79.16 65.1968 79.16ZM75.8779 79.192C77.3659 79.192 78.1019 78.2 78.3739 77.016V79H79.7659V68.28H78.3739V73.272C78.1019 72.088 77.3659 71.096 75.8779 71.096C73.9259 71.096 72.7099 72.696 72.7099 75.144C72.7099 77.592 73.9259 79.192 75.8779 79.192ZM74.1179 75.144C74.1179 73.176 75.1259 72.28 76.3419 72.28C77.8299 72.28 78.3739 73.32 78.3739 74.6V75.704C78.3739 76.984 77.8299 78.024 76.3419 78.024C75.1259 78.024 74.1179 77.128 74.1179 75.144ZM81.9883 72.024C83.0763 71.896 83.3803 71.336 83.3803 70.392V68.312H81.7003V70.392H82.4843V70.616C82.4843 71.064 82.2283 71.176 81.6843 71.256L81.9883 72.024ZM88.1879 79.16C89.8679 79.16 90.9399 78.376 91.5159 77.448L90.6679 76.488C90.3639 77.16 89.7399 78.008 88.1879 78.008C86.8119 78.008 85.8999 77.08 85.8199 75.448H91.5639C91.5959 75.304 91.6279 75.064 91.6279 74.824C91.6279 72.552 90.2999 71.096 88.1079 71.096C85.9799 71.096 84.4759 72.68 84.4759 75.128C84.4759 77.592 85.9959 79.16 88.1879 79.16ZM88.1079 72.264C89.4039 72.264 90.2359 73.016 90.3799 74.44H85.8519C86.0279 73 86.8599 72.264 88.1079 72.264ZM93.4851 79L94.8291 76.984L95.5811 75.848L96.3331 76.984L97.6291 79H99.2451L96.6211 75.048L99.3571 71.256H97.7571L95.6931 74.376L93.6771 71.256H92.0771L94.6531 75.096L91.8851 79H93.4851ZM101.925 81.976V77C102.197 78.168 102.933 79.16 104.421 79.16C106.373 79.16 107.589 77.56 107.589 75.112C107.589 72.664 106.373 71.08 104.421 71.08C102.933 71.08 102.197 72.072 101.925 73.24V71.256H100.533V81.976H101.925ZM101.925 75.672V74.568C101.925 73.288 102.469 72.248 103.941 72.248C105.173 72.248 106.181 73.144 106.181 75.112C106.181 77.096 105.173 77.992 103.941 77.992C102.469 77.992 101.925 76.952 101.925 75.672ZM112.688 79.16C114.368 79.16 115.44 78.376 116.016 77.448L115.168 76.488C114.864 77.16 114.24 78.008 112.688 78.008C111.312 78.008 110.4 77.08 110.32 75.448H116.064C116.096 75.304 116.128 75.064 116.128 74.824C116.128 72.552 114.8 71.096 112.608 71.096C110.48 71.096 108.976 72.68 108.976 75.128C108.976 77.592 110.496 79.16 112.688 79.16ZM112.608 72.264C113.904 72.264 114.736 73.016 114.88 74.44H110.352C110.528 73 111.36 72.264 112.608 72.264ZM119.284 79V74.616C119.284 73.288 120.18 72.12 121.172 72.12C121.732 72.12 121.972 72.504 121.972 72.952C121.972 73.384 121.764 73.864 121.508 74.088H123.028C123.156 73.896 123.332 73.416 123.332 72.76C123.332 71.672 122.532 71.08 121.7 71.08C120.388 71.08 119.588 72.12 119.284 73.32V71.256H117.892V79H119.284ZM127.218 79.176C128.29 79.176 129.026 78.68 129.362 78.152L128.898 76.776C128.69 77.256 128.21 77.832 127.522 77.832C126.914 77.832 126.45 77.592 126.45 76.6V72.344H128.994V71.256H126.45V69.24L125.058 70.264V71.256H123.81V72.344H125.058V77.016C125.058 78.344 125.954 79.176 127.218 79.176ZM132.128 70.008V68.28H130.736V70.008H132.128ZM132.128 79V71.256H130.736V79H132.128ZM137.228 79.16C138.732 79.16 140.044 78.472 140.044 76.936C140.044 75.864 139.468 75.144 137.724 74.728L136.732 74.472C135.676 74.216 135.164 73.976 135.164 73.288C135.164 72.632 135.74 72.28 136.54 72.28C137.644 72.28 138.38 72.856 138.764 73.768L139.82 72.984C139.388 71.96 138.252 71.096 136.62 71.096C134.94 71.096 133.852 71.96 133.852 73.368C133.852 74.792 135.052 75.32 136.156 75.576L137.18 75.816C138.092 76.024 138.796 76.248 138.796 76.952C138.796 77.64 138.188 77.992 137.276 77.992C135.74 77.992 134.892 77.112 134.62 76.232L133.612 77.016C134.14 78.456 135.612 79.16 137.228 79.16ZM144.797 79.16C146.477 79.16 147.549 78.376 148.125 77.448L147.277 76.488C146.973 77.16 146.349 78.008 144.797 78.008C143.421 78.008 142.509 77.08 142.429 75.448H148.173C148.205 75.304 148.237 75.064 148.237 74.824C148.237 72.552 146.909 71.096 144.717 71.096C142.589 71.096 141.085 72.68 141.085 75.128C141.085 77.592 142.605 79.16 144.797 79.16ZM144.717 72.264C146.013 72.264 146.845 73.016 146.989 74.44H142.461C142.637 73 143.469 72.264 144.717 72.264Z" fill="#595959"/>
</svg>
