<svg width="191" height="95" viewBox="0 0 191 95" fill="none" xmlns="http://www.w3.org/2000/svg">
<path d="M55.6988 51V8.12H44.8188C42.5788 10.936 39.9548 11.96 35.8588 11.96V20.984H44.1788V51H55.6988ZM77.8593 51.64C90.2753 51.64 96.2273 46.456 96.2273 39.416C96.2273 34.936 93.1553 30.584 85.2833 29.24C91.4913 28.216 94.6912 24.376 94.6912 19.448C94.6912 12.92 88.7393 7.48 77.8593 7.48C66.9153 7.48 61.0273 12.856 61.0273 19.448C61.0273 24.312 63.9713 28.216 70.1153 29.24C62.2433 30.648 59.4913 34.936 59.4913 39.416C59.4913 46.456 65.4433 51.64 77.8593 51.64ZM77.8593 25.656C74.8513 25.656 73.5073 23.928 73.5073 21.752C73.5073 19.704 74.8513 18.04 77.8593 18.04C80.8673 18.04 82.2113 19.704 82.2113 21.752C82.2113 23.928 80.4833 25.656 77.8593 25.656ZM77.8593 41.08C74.0833 41.08 72.6113 39.096 72.6113 36.728C72.6113 34.296 74.3393 32.184 77.8593 32.184C81.3793 32.184 83.1073 34.296 83.1073 36.728C83.1073 39.096 81.6353 41.08 77.8593 41.08Z" fill="#005680"/>
<rect opacity="0.2" width="1" height="95" transform="matrix(-1 0 0 1 191 0)" fill="#595959"/>
<path d="M5.71156 79.16C7.79156 79.16 9.34356 78.04 9.34356 76.184C9.34356 74.072 7.67956 73.48 6.15956 73.112L4.99156 72.824C3.75956 72.52 2.97556 72.12 2.97556 71.048C2.97556 70.056 3.85556 69.464 5.03956 69.464C6.43156 69.464 7.51956 70.056 8.03156 71.512L9.19956 70.584C8.54356 68.984 7.00756 68.136 5.07156 68.136C3.19956 68.136 1.50356 69.192 1.50356 71.144C1.50356 73.16 3.11956 73.8 4.54356 74.12L5.55156 74.344C6.97556 74.68 7.91956 74.984 7.91956 76.216C7.91956 77.384 6.91156 77.848 5.71156 77.848C4.36756 77.848 2.70356 77.224 2.20756 75.48L1.15156 76.408C1.85556 78.392 3.69556 79.16 5.71156 79.16ZM14.5004 79.16C16.1804 79.16 17.2524 78.376 17.8284 77.448L16.9804 76.488C16.6764 77.16 16.0524 78.008 14.5004 78.008C13.1244 78.008 12.2124 77.08 12.1324 75.448H17.8764C17.9084 75.304 17.9404 75.064 17.9404 74.824C17.9404 72.552 16.6124 71.096 14.4204 71.096C12.2924 71.096 10.7884 72.68 10.7884 75.128C10.7884 77.592 12.3084 79.16 14.5004 79.16ZM14.4204 72.264C15.7164 72.264 16.5484 73.016 16.6924 74.44H12.1644C12.3404 73 13.1724 72.264 14.4204 72.264ZM23.0767 79.16C25.0927 79.16 26.2767 77.992 26.6447 76.44L25.2847 75.88C25.1247 77.112 24.4847 78.008 23.0927 78.008C21.6847 78.008 20.8367 76.952 20.8367 75.128C20.8367 73.304 21.6847 72.264 23.0927 72.264C24.4847 72.264 25.1247 73.144 25.2847 74.376L26.6447 73.816C26.2767 72.264 25.0927 71.096 23.0767 71.096C20.8527 71.096 19.4287 72.68 19.4287 75.128C19.4287 77.592 20.8527 79.16 23.0767 79.16ZM30.7808 79.176C31.8528 79.176 32.5888 78.68 32.9248 78.152L32.4608 76.776C32.2528 77.256 31.7728 77.832 31.0848 77.832C30.4768 77.832 30.0128 77.592 30.0128 76.6V72.344H32.5568V71.256H30.0128V69.24L28.6208 70.264V71.256H27.3728V72.344H28.6208V77.016C28.6208 78.344 29.5168 79.176 30.7808 79.176ZM37.0473 79.16C38.7273 79.16 39.7993 78.376 40.3753 77.448L39.5273 76.488C39.2233 77.16 38.5993 78.008 37.0473 78.008C35.6713 78.008 34.7593 77.08 34.6793 75.448H40.4233C40.4553 75.304 40.4873 75.064 40.4873 74.824C40.4873 72.552 39.1593 71.096 36.9673 71.096C34.8393 71.096 33.3353 72.68 33.3353 75.128C33.3353 77.592 34.8553 79.16 37.0473 79.16ZM36.9673 72.264C38.2633 72.264 39.0953 73.016 39.2393 74.44H34.7113C34.8873 73 35.7193 72.264 36.9673 72.264ZM44.6673 79.16C46.2193 79.16 47.0513 78.104 47.3393 76.888V79H48.7153V71.256H47.3393V75.656C47.3393 76.936 46.7953 77.992 45.2913 77.992C43.9793 77.992 43.5793 77.272 43.5793 76.28V71.256H42.2033V76.616C42.2033 78.248 43.1473 79.16 44.6673 79.16ZM52.2214 79V74.616C52.2214 73.288 53.1174 72.12 54.1094 72.12C54.6694 72.12 54.9094 72.504 54.9094 72.952C54.9094 73.384 54.7014 73.864 54.4454 74.088H55.9654C56.0934 73.896 56.2694 73.416 56.2694 72.76C56.2694 71.672 55.4694 71.08 54.6374 71.08C53.3254 71.08 52.5254 72.12 52.2214 73.32V71.256H50.8294V79H52.2214ZM60.3843 79.16C61.8883 79.16 63.2003 78.472 63.2003 76.936C63.2003 75.864 62.6243 75.144 60.8803 74.728L59.8883 74.472C58.8323 74.216 58.3203 73.976 58.3203 73.288C58.3203 72.632 58.8963 72.28 59.6963 72.28C60.8003 72.28 61.5363 72.856 61.9203 73.768L62.9763 72.984C62.5443 71.96 61.4083 71.096 59.7763 71.096C58.0963 71.096 57.0083 71.96 57.0083 73.368C57.0083 74.792 58.2083 75.32 59.3123 75.576L60.3363 75.816C61.2483 76.024 61.9523 76.248 61.9523 76.952C61.9523 77.64 61.3443 77.992 60.4323 77.992C58.8963 77.992 58.0483 77.112 57.7763 76.232L56.7683 77.016C57.2963 78.456 58.7683 79.16 60.3843 79.16ZM71.0654 79.192C72.5534 79.192 73.2894 78.2 73.5614 77.016V79H74.9534V68.28H73.5614V73.272C73.2894 72.088 72.5534 71.096 71.0654 71.096C69.1134 71.096 67.8974 72.696 67.8974 75.144C67.8974 77.592 69.1134 79.192 71.0654 79.192ZM69.3054 75.144C69.3054 73.176 70.3134 72.28 71.5294 72.28C73.0174 72.28 73.5614 73.32 73.5614 74.6V75.704C73.5614 76.984 73.0174 78.024 71.5294 78.024C70.3134 78.024 69.3054 77.128 69.3054 75.144ZM77.1758 72.024C78.2638 71.896 78.5678 71.336 78.5678 70.392V68.312H76.8878V70.392H77.6718V70.616C77.6718 71.064 77.4158 71.176 76.8718 71.256L77.1758 72.024ZM82.1013 79.16C83.7013 79.16 84.5333 78.008 84.7893 76.984V77.528C84.7893 78.616 85.3653 79 86.1653 79H87.0613V77.736H86.5653C86.2773 77.736 86.1333 77.624 86.1333 77.256V74.072C86.1333 72.232 85.1093 71.096 83.2053 71.096C81.4773 71.096 80.3253 72.072 79.8613 72.872L80.8053 73.848C81.2053 73 81.9413 72.36 83.0453 72.36C84.2613 72.36 84.6933 73.032 84.7413 73.944L81.9413 75.192C80.8373 75.688 80.0533 76.344 80.0533 77.384C80.0533 78.408 80.7893 79.16 82.1013 79.16ZM81.4613 77.16C81.4613 76.68 81.7973 76.36 82.5333 76.008L84.7893 74.952V76.024C84.7893 77.144 83.8613 78.008 82.5493 78.008C81.8293 78.008 81.4613 77.688 81.4613 77.16ZM91.8579 79.16C93.8739 79.16 95.0579 77.992 95.4259 76.44L94.0659 75.88C93.9059 77.112 93.2659 78.008 91.8739 78.008C90.4659 78.008 89.6179 76.952 89.6179 75.128C89.6179 73.304 90.4659 72.264 91.8739 72.264C93.2659 72.264 93.9059 73.144 94.0659 74.376L95.4259 73.816C95.0579 72.264 93.8739 71.096 91.8579 71.096C89.6339 71.096 88.2099 72.68 88.2099 75.128C88.2099 77.592 89.6339 79.16 91.8579 79.16ZM99.5621 79.176C100.634 79.176 101.37 78.68 101.706 78.152L101.242 76.776C101.034 77.256 100.554 77.832 99.8661 77.832C99.2581 77.832 98.7941 77.592 98.7941 76.6V72.344H101.338V71.256H98.7941V69.24L97.4021 70.264V71.256H96.1541V72.344H97.4021V77.016C97.4021 78.344 98.2981 79.176 99.5621 79.176ZM104.471 70.008V68.28H103.079V70.008H104.471ZM104.471 79V71.256H103.079V79H104.471ZM110.164 79L112.98 71.256H111.492L109.972 75.848L109.316 77.976L108.644 75.848L107.108 71.256H105.604L108.404 79H110.164ZM115.518 70.008V68.28H114.126V70.008H115.518ZM115.518 79V71.256H114.126V79H115.518ZM120.203 79.176C121.275 79.176 122.011 78.68 122.347 78.152L121.883 76.776C121.675 77.256 121.195 77.832 120.507 77.832C119.899 77.832 119.435 77.592 119.435 76.6V72.344H121.979V71.256H119.435V69.24L118.043 70.264V71.256H116.795V72.344H118.043V77.016C118.043 78.344 118.939 79.176 120.203 79.176ZM126.949 70.248L128.773 68.36H126.949L125.637 70.248H126.949ZM126.469 79.16C128.149 79.16 129.221 78.376 129.797 77.448L128.949 76.488C128.645 77.16 128.021 78.008 126.469 78.008C125.093 78.008 124.181 77.08 124.101 75.448H129.845C129.877 75.304 129.909 75.064 129.909 74.824C129.909 72.552 128.581 71.096 126.389 71.096C124.261 71.096 122.757 72.68 122.757 75.128C122.757 77.592 124.277 79.16 126.469 79.16ZM126.389 72.264C127.685 72.264 128.517 73.016 128.661 74.44H124.133C124.309 73 125.141 72.264 126.389 72.264Z" fill="#595959"/>
</svg>
