<svg width="160" height="100" viewBox="0 0 160 100" fill="none" xmlns="http://www.w3.org/2000/svg">
<rect width="160" height="100" rx="8" fill="white"/>
<rect x="0.5" y="0.5" width="159" height="99" rx="7.5" stroke="#6ECFFF" stroke-opacity="0.33"/>
<path d="M55.816 55L59.624 44.28H57.032L55.192 50.056L54.392 53.48L53.608 50.056L51.768 44.28H49.08L52.888 55H55.816ZM63.1794 55.16C65.6274 55.16 67.1794 53.48 67.1794 51.08C67.1794 48.696 65.6274 47 63.1794 47C60.7954 47 59.2594 48.696 59.2594 51.08C59.2594 53.48 60.7954 55.16 63.1794 55.16ZM63.2114 53.304C62.2514 53.304 61.5794 52.68 61.5794 51.08C61.5794 49.464 62.2514 48.856 63.2114 48.856C64.1874 48.856 64.8594 49.464 64.8594 51.08C64.8594 52.68 64.1874 53.304 63.2114 53.304ZM70.7599 46.232V44.28H68.4719V46.232H70.7599ZM70.7599 55V47.16H68.4719V55H70.7599ZM74.6661 55V50.856C74.6661 49.56 75.4021 48.712 76.1861 48.712C76.6821 48.712 76.8901 49.048 76.8901 49.496C76.8901 49.944 76.6181 50.504 76.3301 50.792H78.5381C78.7301 50.488 78.9861 49.816 78.9861 48.968C78.9861 47.736 78.3461 47 77.1941 47C75.6901 47 74.9221 48.312 74.6661 49.624V47.16H72.3781V55H74.6661ZM85.2755 57.976V52.776C85.4835 54.04 86.0435 55.16 87.6755 55.16C89.5955 55.16 90.7795 53.672 90.7795 51.08C90.7795 48.472 89.5955 46.984 87.7715 46.984C86.1395 46.984 85.4995 48.12 85.2755 49.384V47.16H82.9875V57.976H85.2755ZM85.2755 51.496V50.648C85.2755 49.368 85.8035 48.776 86.7635 48.776C87.8035 48.776 88.4595 49.592 88.4595 51.08C88.4595 52.568 87.8035 53.384 86.7635 53.384C85.8035 53.384 85.2755 52.776 85.2755 51.496ZM94.3224 55V44.28H92.0344V55H94.3224ZM98.3086 55.16C99.8926 55.16 100.645 54.056 100.917 52.808V55H103.205V47.16H100.917V51.496C100.917 52.776 100.581 53.384 99.4926 53.384C98.4366 53.384 98.1806 52.792 98.1806 51.832V47.16H95.8926V52.632C95.8926 54.248 96.8206 55.16 98.3086 55.16ZM108.038 55.16C109.862 55.16 111.142 54.296 111.142 52.776C111.142 51.576 110.39 50.904 108.662 50.44L107.782 50.2C106.742 49.912 106.406 49.752 106.406 49.336C106.406 48.952 106.742 48.744 107.302 48.744C108.214 48.744 109.174 49.176 109.942 49.976L110.966 48.44C110.422 47.752 109.19 47.016 107.494 47.016C105.574 47.016 104.326 47.928 104.326 49.464C104.326 50.84 105.35 51.4 106.758 51.768L107.814 52.024C108.646 52.232 109.094 52.392 109.094 52.808C109.094 53.224 108.726 53.416 108.102 53.416C106.918 53.416 105.782 52.728 105.126 52.024L104.07 53.576C104.742 54.52 106.294 55.16 108.038 55.16Z" fill="#005680"/>
</svg>
