<svg width="192" height="95" viewBox="0 0 192 95" fill="none" xmlns="http://www.w3.org/2000/svg">
<path d="M29.4215 41.016V34.104H36.2695V24.952H29.4215V18.104H20.2695V24.952H13.3575V34.104H20.2695V41.016H29.4215ZM58.9875 51.64C68.4595 51.64 76.2675 47.608 76.2675 40.056C76.2675 33.72 71.3395 29.432 62.4435 29.432C68.7155 29.432 75.1795 27.192 75.1795 19.384C75.1795 12.728 69.2275 7.48 59.3075 7.48C49.3235 7.48 42.9235 12.28 40.9395 18.232L49.1315 25.528C50.4115 20.728 54.2515 18.488 58.8595 18.488C61.6115 18.488 63.6595 19.64 63.6595 21.88C63.6595 24.312 61.4195 24.952 58.5395 24.952H51.4995V33.976H57.8355C61.2915 33.976 63.7235 34.36 63.7235 36.92C63.7235 39.352 61.6755 40.76 58.0275 40.76C53.2915 40.76 49.2595 38.264 47.9155 33.4L39.7235 40.696C41.8355 46.968 49.0035 51.64 58.9875 51.64ZM100.15 51.512C112.694 51.512 120.31 42.488 120.31 29.496C120.31 16.504 112.694 7.48 100.15 7.48C87.606 7.48 79.99 16.504 79.99 29.496C79.99 42.488 87.606 51.512 100.15 51.512ZM100.15 40.312C94.774 40.312 92.15 36.344 92.15 29.496C92.15 22.648 94.774 18.68 100.15 18.68C105.526 18.68 108.15 22.648 108.15 29.496C108.15 36.344 105.526 40.312 100.15 40.312Z" fill="#005680"/>
<rect opacity="0.2" width="1" height="95" transform="matrix(-1 0 0 1 192 0)" fill="#595959"/>
<path d="M1.72388 79L2.89188 76.008H7.57988L8.74788 79H10.2839L5.96388 68.28H4.57188L0.251875 79H1.72388ZM4.69988 71.384L5.24388 69.704L5.77188 71.384L7.09988 74.776H3.37188L4.69988 71.384ZM12.5886 79V74.616C12.5886 73.32 13.1326 72.28 14.6206 72.28C15.9326 72.28 16.3326 72.984 16.3326 73.992V79H17.7086V73.656C17.7086 72.008 16.7646 71.096 15.2446 71.096C13.7246 71.096 12.8926 72.12 12.5886 73.32V71.256H11.1966V79H12.5886ZM21.1668 79V74.616C21.1668 73.32 21.7108 72.28 23.1988 72.28C24.5108 72.28 24.9108 72.984 24.9108 73.992V79H26.2868V73.656C26.2868 72.008 25.3428 71.096 23.8228 71.096C22.3028 71.096 21.4708 72.12 21.1668 73.32V71.256H19.7747V79H21.1668ZM32.0976 70.248L33.9216 68.36H32.0976L30.7856 70.248H32.0976ZM31.6176 79.16C33.2976 79.16 34.3696 78.376 34.9456 77.448L34.0976 76.488C33.7936 77.16 33.1696 78.008 31.6176 78.008C30.2416 78.008 29.3296 77.08 29.2496 75.448H34.9936C35.0256 75.304 35.0576 75.064 35.0576 74.824C35.0576 72.552 33.7296 71.096 31.5376 71.096C29.4096 71.096 27.9056 72.68 27.9056 75.128C27.9056 77.592 29.4256 79.16 31.6176 79.16ZM31.5376 72.264C32.8336 72.264 33.6656 73.016 33.8096 74.44H29.2816C29.4576 73 30.2896 72.264 31.5376 72.264ZM40.2739 79.16C41.9539 79.16 43.0259 78.376 43.6019 77.448L42.7539 76.488C42.4499 77.16 41.8259 78.008 40.2739 78.008C38.8979 78.008 37.9859 77.08 37.9059 75.448H43.6499C43.6819 75.304 43.7139 75.064 43.7139 74.824C43.7139 72.552 42.3859 71.096 40.1939 71.096C38.0659 71.096 36.5619 72.68 36.5619 75.128C36.5619 77.592 38.0819 79.16 40.2739 79.16ZM40.1939 72.264C41.4899 72.264 42.3219 73.016 42.4659 74.44H37.9379C38.1139 73 38.9459 72.264 40.1939 72.264ZM48.3609 79.16C49.8649 79.16 51.1769 78.472 51.1769 76.936C51.1769 75.864 50.6009 75.144 48.8569 74.728L47.8649 74.472C46.8089 74.216 46.2969 73.976 46.2969 73.288C46.2969 72.632 46.8729 72.28 47.6729 72.28C48.7769 72.28 49.5129 72.856 49.8969 73.768L50.9529 72.984C50.5209 71.96 49.3849 71.096 47.7529 71.096C46.0729 71.096 44.9849 71.96 44.9849 73.368C44.9849 74.792 46.1849 75.32 47.2889 75.576L48.3129 75.816C49.2249 76.024 49.9289 76.248 49.9289 76.952C49.9289 77.64 49.3209 77.992 48.4089 77.992C46.8729 77.992 46.0249 77.112 45.7529 76.232L44.7449 77.016C45.2729 78.456 46.7449 79.16 48.3609 79.16ZM59.042 79.192C60.53 79.192 61.266 78.2 61.538 77.016V79H62.93V68.28H61.538V73.272C61.266 72.088 60.53 71.096 59.042 71.096C57.09 71.096 55.874 72.696 55.874 75.144C55.874 77.592 57.09 79.192 59.042 79.192ZM57.282 75.144C57.282 73.176 58.29 72.28 59.506 72.28C60.994 72.28 61.538 73.32 61.538 74.6V75.704C61.538 76.984 60.994 78.024 59.506 78.024C58.29 78.024 57.282 77.128 57.282 75.144ZM65.1524 72.024C66.2404 71.896 66.5444 71.336 66.5444 70.392V68.312H64.8644V70.392H65.6484V70.616C65.6484 71.064 65.3924 71.176 64.8484 71.256L65.1524 72.024ZM71.352 79.16C73.032 79.16 74.104 78.376 74.68 77.448L73.832 76.488C73.528 77.16 72.904 78.008 71.352 78.008C69.976 78.008 69.064 77.08 68.984 75.448H74.728C74.76 75.304 74.792 75.064 74.792 74.824C74.792 72.552 73.464 71.096 71.272 71.096C69.144 71.096 67.64 72.68 67.64 75.128C67.64 77.592 69.16 79.16 71.352 79.16ZM71.272 72.264C72.568 72.264 73.4 73.016 73.544 74.44H69.016C69.192 73 70.024 72.264 71.272 72.264ZM76.6491 79L77.9931 76.984L78.7451 75.848L79.4971 76.984L80.7931 79H82.4091L79.7851 75.048L82.5211 71.256H80.9211L78.8571 74.376L76.8411 71.256H75.2411L77.8171 75.096L75.0491 79H76.6491ZM85.0886 70.008V68.28H83.6966V70.008H85.0886ZM85.0886 79V71.256H83.6966V79H85.0886ZM90.189 79.16C91.693 79.16 93.005 78.472 93.005 76.936C93.005 75.864 92.429 75.144 90.685 74.728L89.693 74.472C88.637 74.216 88.125 73.976 88.125 73.288C88.125 72.632 88.701 72.28 89.501 72.28C90.605 72.28 91.341 72.856 91.725 73.768L92.781 72.984C92.349 71.96 91.213 71.096 89.581 71.096C87.901 71.096 86.813 71.96 86.813 73.368C86.813 74.792 88.013 75.32 89.117 75.576L90.141 75.816C91.053 76.024 91.757 76.248 91.757 76.952C91.757 77.64 91.149 77.992 90.237 77.992C88.701 77.992 87.853 77.112 87.581 76.232L86.573 77.016C87.101 78.456 88.573 79.16 90.189 79.16ZM97.0386 79.176C98.1106 79.176 98.8466 78.68 99.1826 78.152L98.7186 76.776C98.5106 77.256 98.0306 77.832 97.3426 77.832C96.7346 77.832 96.2706 77.592 96.2706 76.6V72.344H98.8146V71.256H96.2706V69.24L94.8786 70.264V71.256H93.6306V72.344H94.8786V77.016C94.8786 78.344 95.7746 79.176 97.0386 79.176ZM103.305 79.16C104.985 79.16 106.057 78.376 106.633 77.448L105.785 76.488C105.481 77.16 104.857 78.008 103.305 78.008C101.929 78.008 101.017 77.08 100.937 75.448H106.681C106.713 75.304 106.745 75.064 106.745 74.824C106.745 72.552 105.417 71.096 103.225 71.096C101.097 71.096 99.5931 72.68 99.5931 75.128C99.5931 77.592 101.113 79.16 103.305 79.16ZM103.225 72.264C104.521 72.264 105.353 73.016 105.497 74.44H100.969C101.145 73 101.977 72.264 103.225 72.264ZM109.901 79V74.616C109.901 73.32 110.445 72.28 111.933 72.28C113.245 72.28 113.645 72.984 113.645 73.992V79H115.021V73.656C115.021 72.008 114.077 71.096 112.557 71.096C111.037 71.096 110.205 72.12 109.901 73.32V71.256H108.509V79H109.901ZM120.272 79.16C122.288 79.16 123.472 77.992 123.84 76.44L122.48 75.88C122.32 77.112 121.68 78.008 120.288 78.008C118.88 78.008 118.032 76.952 118.032 75.128C118.032 73.304 118.88 72.264 120.288 72.264C121.68 72.264 122.32 73.144 122.48 74.376L123.84 73.816C123.472 72.264 122.288 71.096 120.272 71.096C118.048 71.096 116.624 72.68 116.624 75.128C116.624 77.592 118.048 79.16 120.272 79.16ZM128.649 79.16C130.329 79.16 131.401 78.376 131.977 77.448L131.129 76.488C130.825 77.16 130.201 78.008 128.649 78.008C127.273 78.008 126.361 77.08 126.281 75.448H132.025C132.057 75.304 132.089 75.064 132.089 74.824C132.089 72.552 130.761 71.096 128.569 71.096C126.441 71.096 124.937 72.68 124.937 75.128C124.937 77.592 126.457 79.16 128.649 79.16ZM128.569 72.264C129.865 72.264 130.697 73.016 130.841 74.44H126.313C126.489 73 127.321 72.264 128.569 72.264Z" fill="#595959"/>
</svg>
